Coordinates
version=1
nRows=16
nColumns=42
inDegrees=yes

Units are S.I. units (second, meters, Newtons, ...)
If the header above contains a line with 'inDegrees', this indicates whether rotational values are in degrees (yes) or radians (no).

endheader
time	pelvis_tilt	pelvis_list	pelvis_rotation	pelvis_tx	pelvis_ty	pelvis_tz	hip_flexion_r	hip_adduction_r	hip_rotation_r	knee_angle_r	knee_adduction_r	knee_angle_r_beta	ankle_angle_r	subtalar_angle_r	mtp_angle_r	hip_flexion_l	hip_adduction_l	hip_rotation_l	knee_angle_l	knee_adduction_l	knee_angle_l_beta	ankle_angle_l	subtalar_angle_l	mtp_angle_l	lumbar_extension	lumbar_bending	lumbar_rotation	arm_flex_r	arm_add_r	arm_rot_r	elbow_flex_r	pro_sup_r	wrist_flex_r	wrist_dev_r	arm_flex_l	arm_add_l	arm_rot_l	elbow_flex_l	pro_sup_l	wrist_flex_l	wrist_dev_l
      1.65000000	     14.40952186	      3.34283637	      6.66461385	     -0.40680882	      0.88077986	     -0.03230542	     11.94426693	     -2.92885696	    -16.61606356	     33.58367283	     -1.29010635	      0.58614567	     10.71921905	     -7.89048828	     -7.54312670	    -20.95256268	     -3.79517524	    -18.69201255	     44.10430154	     -8.47963412	      0.76976528	      8.80592698	     27.10319711	     -7.54312670	    -32.02044602	     -0.95249932	     -6.42822061	     -3.80523794	     -6.18988618	    -45.00231812	     20.88278141	     90.00000001	      0.00000000	      0.00000000	     10.47944253	     -7.51033932	    -31.22865460	     34.48212030	     90.00000001	      0.00000000	      0.00000000
      1.66000000	     14.63037441	      3.14667134	      6.49056347	     -0.39724849	      0.88198199	     -0.03078434	     11.04863710	     -2.52461030	    -16.90560011	     33.60987667	     -1.32584721	      0.58660301	     11.59183512	     -7.62130280	     -7.54249242	    -20.26209920	     -3.93825246	    -18.49212215	     46.16304778	     -9.01772665	      0.80569718	      7.64162195	     25.17607623	     -7.54249242	    -32.20915122	     -0.75610335	     -6.19338208	     -3.36085862	     -6.37604847	    -44.65876999	     21.14784066	     90.00000001	      0.00000000	      0.00000000	      9.96897368	     -7.31583243	    -31.50647329	     34.30919649	     90.00000001	      0.00000000	      0.00000000
      1.67000000	     14.70834334	      2.97727677	      6.23294304	     -0.38808644	      0.88301704	     -0.02899576	     10.43408167	     -2.00155419	    -17.56669217	     33.65608067	     -1.97411468	      0.58740942	     12.47488093	     -6.44905768	     -7.54078832	    -19.38332819	     -3.95883557	    -17.42504006	     48.30956852	     -8.82506125	      0.84316103	      6.65123745	     21.42311697	     -7.54078832	    -32.30773851	     -0.65873387	     -5.87724918	     -2.93956718	     -6.58122894	    -43.67027123	     21.47593477	     90.00000001	      0.00000000	      0.00000000	      9.55712351	     -7.10690784	    -31.92609970	     34.11084435	     90.00000001	      0.00000000	      0.00000000
      1.68000000	     14.92128381	      2.90458761	      6.06096265	     -0.37900889	      0.88431557	     -0.02748140	      9.57460530	     -1.71575352	    -18.37762986	     33.63158344	     -2.40404621	      0.58698186	     13.42204039	     -5.18795816	     -7.53902428	    -18.59824483	     -3.85711486	    -16.43464148	     50.30226604	     -8.76617834	      0.87794016	      5.99823696	     17.99815522	     -7.53902428	    -32.55893711	     -0.60608919	     -5.67398251	     -2.51655398	     -6.75935724	    -42.54488528	     21.87100043	     90.00000001	      0.00000000	      0.00000000	      9.18527813	     -6.92003222	    -32.33825884	     33.88986738	     90.00000001	      0.00000000	      0.00000000
      1.69000000	     15.12294512	      2.84845323	      5.91243837	     -0.37009606	      0.88559410	     -0.02609356	      8.68508373	     -1.47582220	    -19.16624239	     33.51582749	     -2.78227452	      0.58496154	     14.35000517	     -3.97673903	     -7.53724912	    -17.69338487	     -3.75432887	    -15.58355960	     52.30884734	     -8.70200567	      0.91296161	      5.68977330	     14.61197601	     -7.53724912	    -32.80827810	     -0.54442220	     -5.49594783	     -2.08251379	     -6.96132061	    -41.32651818	     22.32819672	     90.00000001	      0.00000000	      0.00000000	      8.80836874	     -6.74992014	    -32.66143808	     33.66452858	     90.00000001	      0.00000000	      0.00000000
      1.70000000	     15.47508990	      3.01013081	      5.55152925	     -0.36132833	      0.88717603	     -0.02445732	      7.62387891	     -1.45967846	    -19.32109404	     33.46270060	     -2.89254076	      0.58403430	     14.73199803	     -3.74697998	     -7.53676456	    -16.97198241	     -3.36401611	    -15.54314951	     53.96694723	     -9.12261591	      0.94190092	      6.12861922	     13.54012659	     -7.53676456	    -33.27027815	     -0.79790181	     -5.19949775	     -1.47327774	     -7.06578691	    -40.98959440	     22.71557352	     90.00000001	      0.00000000	      0.00000000	      8.45232848	     -6.67295113	    -32.68120032	     33.53998355	     90.00000001	      0.00000000	      0.00000000
      1.71000000	     15.61117390	      2.88542963	      5.66429351	     -0.35286809	      0.88845833	     -0.02344620	      6.71478313	     -1.21205870	    -20.32858901	     33.14283070	     -3.17213015	      0.57845152	     15.90633416	     -2.07438173	     -7.53398246	    -15.81520164	     -3.31576039	    -13.72930028	     55.93741191	     -8.36885035	      0.97629201	      5.69430863	      7.58614605	     -7.53398246	    -33.47120983	     -0.57404189	     -5.23886924	     -1.16139856	     -7.31966253	    -38.40243526	     23.39755276	     90.00000001	      0.00000000	      0.00000000	      8.16821873	     -6.47974766	    -33.18015969	     33.21564311	     90.00000001	      0.00000000	      0.00000000
      1.72000000	     15.85556741	      2.83291358	      5.57126848	     -0.34452530	      0.88990974	     -0.02207362	      5.67850963	     -0.95285697	    -20.53406040	     32.81458246	     -3.20424499	      0.57272251	     16.45932915	     -1.59256923	     -7.53174944	    -14.76023739	     -3.21685784	    -12.90136802	     57.61615667	     -8.12508232	      1.00559164	      6.06930692	      4.39547582	     -7.53174944	    -33.82119891	     -0.52258140	     -5.06537699	     -0.66999632	     -7.50931849	    -36.83325186	     23.97770594	     90.00000001	      0.00000000	      0.00000000	      7.89864637	     -6.36030293	    -33.32908946	     33.00093413	     90.00000001	      0.00000000	      0.00000000
      1.73000000	     16.12106022	      2.75608050	      5.45058224	     -0.33624575	      0.89136666	     -0.02071091	      4.57185261	     -0.66542866	    -20.39862646	     32.40470456	     -3.03806082	      0.56556879	     17.01622230	     -1.40486439	     -7.53094700	    -13.68686927	     -3.15417312	    -12.51790991	     59.08388290	     -8.15051039	      1.03120829	      7.07766120	      2.29482229	     -7.53094700	    -34.17827732	     -0.45875938	     -4.85868647	     -0.00613209	     -7.66137751	    -36.12593310	     24.43661992	     90.00000001	      0.00000000	      0.00000000	      7.61102850	     -6.26006529	    -33.33512200	     32.78325214	     90.00000001	      0.00000000	      0.00000000
      1.74000000	     16.37721926	      2.80756803	      5.39252547	     -0.32840613	      0.89296434	     -0.01944816	      3.48739870	     -0.52154209	    -20.18083240	     32.00258821	     -2.84358536	      0.55855053	     17.23838071	     -1.54347119	     -7.52858449	    -12.56153818	     -2.90114112	    -11.10656007	     60.46999778	     -7.35133291	      1.05540056	      6.98097597	     -1.66508241	     -7.52858449	    -34.59861448	     -0.50991503	     -4.75013095	      0.44406484	     -7.87506107	    -33.82418810	     25.16301921	     90.00000001	      0.00000000	      0.00000000	      7.44705050	     -6.16577359	    -33.51865575	     32.57554847	     90.00000001	      0.00000000	      0.00000000
      1.75000000	     16.65205093	      2.87468225	      5.26196242	     -0.32043323	      0.89447421	     -0.01812860	      2.39722123	     -0.42447335	    -19.98560053	     31.64722592	     -2.65301551	      0.55234829	     17.59875165	     -1.44622950	     -7.52812204	    -11.43006512	     -2.65310670	    -10.85671242	     61.54035785	     -7.44544302	      1.07408187	      8.08585718	     -2.81049581	     -7.52812204	    -34.99716320	     -0.61335104	     -4.57430183	      1.18958132	     -7.94518718	    -33.37975044	     25.61929270	     90.00000001	      0.00000000	      0.00000000	      7.23287629	     -6.09800985	    -33.46236044	     32.40136415	     90.00000001	      0.00000000	      0.00000000
      1.76000000	     16.93135197	      2.96698322	      5.04879861	     -0.31268221	      0.89597556	     -0.01666231	      1.36226758	     -0.32581665	    -19.76465917	     31.34435505	     -2.56736550	      0.54706220	     17.84141041	     -1.35903788	     -7.52773705	    -10.27596436	     -2.38088170	    -10.45275946	     62.48099911	     -7.26255173	      1.09049915	      8.83611483	     -3.75335142	     -7.52773705	    -35.42975608	     -0.79459177	     -4.30843875	      1.95503050	     -8.02433063	    -32.87724591	     26.09253456	     90.00000001	      0.00000000	      0.00000000	      7.06396981	     -6.05932130	    -33.40940561	     32.27544038	     90.00000001	      0.00000000	      0.00000000
      1.77000000	     17.08482143	      2.80488282	      5.21072424	     -0.30542819	      0.89740719	     -0.01573125	      0.23247745	      0.11536926	    -19.14752482	     30.51135221	     -2.11110520	      0.53252356	     17.85586915	     -2.17132344	     -7.52583047	     -8.91909542	     -2.36183173	     -7.91818371	     63.43494177	     -5.48519387	      1.10714859	      8.35580307	     -8.34705665	     -7.52583047	    -35.75301099	     -0.54450599	     -4.26214200	      2.31684969	     -8.41926423	    -29.41473411	     27.03921862	     90.00000001	      0.00000000	      0.00000000	      6.98249181	     -5.95071623	    -33.53638980	     32.00866901	     90.00000001	      0.00000000	      0.00000000
      1.78000000	     17.29401794	      2.80729362	      5.12377972	     -0.29805897	      0.89878803	     -0.01450030	     -0.80844116	      0.31023840	    -18.82507950	     29.98095541	     -1.89225274	      0.52326638	     18.20425393	     -2.09436128	     -7.52495729	     -7.66088696	     -2.18957703	     -6.79368103	     63.99304384	     -4.67465396	      1.11688931	      9.02134099	     -9.36356160	     -7.52495729	    -36.12198802	     -0.58453306	     -4.04178890	      3.06994214	     -8.57139010	    -28.35533393	     27.58976389	     90.00000001	      0.00000000	      0.00000000	      6.91335723	     -5.88483562	    -33.47581977	     31.80410424	     90.00000001	      0.00000000	      0.00000000
      1.79000000	     17.39886375	      2.91330615	      4.96364205	     -0.29062841	      0.89989124	     -0.01329562	     -1.65928504	      0.38177445	    -18.72341455	     29.57438744	     -1.89225818	      0.51617044	     18.41190491	     -1.99051558	     -7.52452271	     -6.28915417	     -1.78491652	     -6.12329503	     64.31830773	     -4.35924482	      1.12256624	      9.57889867	     -9.84142218	     -7.52452271	    -36.34556878	     -0.78198415	     -3.83499131	      3.83864210	     -8.65986199	    -27.73034195	     28.10972420	     90.00000001	      0.00000000	      0.00000000	      6.75394659	     -5.83515506	    -33.40962429	     31.69264142	     90.00000001	      0.00000000	      0.00000000
      1.80000000	     17.57008068	      2.82973451	      4.97783158	     -0.28355064	      0.90107819	     -0.01224853	     -2.65855310	      0.66377517	    -18.64965602	     28.98849012	     -1.73683679	      0.50594460	     18.60024448	     -1.85015194	     -7.52360801	     -4.98155649	     -1.72027361	     -4.05447256	     64.58196307	     -2.70961778	      1.12716789	      9.62536052	    -11.25073482	     -7.52360801	    -36.68439609	     -0.69936484	     -3.64504901	      4.47188701	     -8.94792707	    -25.70129710	     28.80316788	     90.00000001	      0.00000000	      0.00000000	      6.71745030	     -5.78466432	    -33.37654106	     31.52315432	     90.00000001	      0.00000000	      0.00000000
